<svg width="25" height="25" viewBox="0 0 25 25" fill="none" xmlns="http://www.w3.org/2000/svg">
<path d="M18.2947 1.04627L15.4017 1.0415C12.1516 1.0415 10.0512 3.25514 10.0512 6.68133V9.28166H7.14239C6.89104 9.28166 6.6875 9.49098 6.6875 9.74918V13.5168C6.6875 13.775 6.89127 13.9841 7.14239 13.9841H10.0512V23.4909C10.0512 23.7491 10.2547 23.9582 10.5061 23.9582H14.3012C14.5525 23.9582 14.7561 23.7488 14.7561 23.4909V13.9841H18.1571C18.4084 13.9841 18.612 13.775 18.612 13.5168L18.6134 9.74918C18.6134 9.62521 18.5653 9.50648 18.4801 9.41875C18.395 9.33101 18.2789 9.28166 18.1582 9.28166H14.7561V7.07732C14.7561 6.01783 15.0018 5.47998 16.3454 5.47998L18.2942 5.47926C18.5454 5.47926 18.7489 5.26994 18.7489 5.01198V1.51356C18.7489 1.25583 18.5456 1.04675 18.2947 1.04627Z" fill="white"/>
</svg>
