<?xml version="1.0" encoding="UTF-8"?> <svg xmlns="http://www.w3.org/2000/svg" width="92" height="92" viewBox="0 0 92 92" fill="none"><path d="M28.2158 46.8846L41.5047 60.1735L67.0603 33.5957" stroke="#0043C6" stroke-width="4" stroke-linecap="round"></path><path d="M56.2878 10.1754L56.4698 10.3433L56.7136 10.3004L70.5016 7.87473L74.0229 21.4244L74.0852 21.664L74.3135 21.7598L87.2242 27.1736L82.861 40.4761L82.7838 40.7113L82.9241 40.9153L90.8583 52.4496L79.9959 61.2815L79.8038 61.4377L79.8116 61.6851L80.2503 75.678L66.3374 77.2352L66.0913 77.2627L65.9641 77.4751L58.768 89.4838L46.2219 83.2719L46 83.1621L45.7781 83.2719L33.232 89.4838L26.0359 77.4751L25.9087 77.2627L25.6626 77.2352L11.7497 75.678L12.1884 61.6851L12.1962 61.4377L12.0041 61.2815L1.14169 52.4496L9.07589 40.9153L9.21619 40.7113L9.13903 40.4761L4.77585 27.1736L17.6865 21.7598L17.9148 21.664L17.9771 21.4244L21.4984 7.87473L35.2864 10.3004L35.5302 10.3433L35.7122 10.1754L46 0.680405L56.2878 10.1754Z" stroke="#0043C6"></path><circle cx="46.3405" cy="46.3407" r="30.1667" stroke="#0043C6"></circle></svg> 