<?xml version="1.0" encoding="UTF-8"?> <svg xmlns="http://www.w3.org/2000/svg" width="104" height="83" viewBox="0 0 104 83" fill="none"><path d="M41.5066 1.61804L48.3605 22.7122L48.4727 23.0577H48.836H71.0157L53.0719 36.0945L52.7781 36.3081L52.8903 36.6536L59.7442 57.7477L41.8005 44.7108L41.5066 44.4973L41.2127 44.7108L23.269 57.7477L30.1228 36.6536L30.2351 36.3081L29.9412 36.0945L11.9975 23.0577H34.1772H34.5404L34.6527 22.7122L41.5066 1.61804Z" stroke="#0043C6"></path><path d="M82.5472 28.6674L86.8881 42.0274L87.0004 42.3729H87.3636H101.411L90.0465 50.6299L89.7526 50.8434L89.8649 51.1889L94.2058 64.549L82.841 56.292L82.5472 56.0785L82.2533 56.292L70.8885 64.549L75.2295 51.1889L75.3417 50.8434L75.0478 50.6299L63.6831 42.3729H77.7307H78.0939L78.2062 42.0274L82.5472 28.6674Z" stroke="#0043C6"></path><path d="M0 68.0897H58.7623M27.5157 82.0808H78.3498" stroke="#0043C6"></path></svg> 