<svg width="159" height="68" viewBox="0 0 159 68" fill="none" xmlns="http://www.w3.org/2000/svg">
<path d="M158.6 36.5C158.6 40.7024 156.452 44.7473 152.479 48.4693C148.505 52.1919 142.733 55.5628 135.568 58.402C121.239 64.0795 101.416 67.6 79.5 67.6C57.5841 67.6 37.7614 64.0795 23.4324 58.402C16.2667 55.5628 10.4948 52.1919 6.52097 48.4693C2.54784 44.7473 0.4 40.7024 0.4 36.5C0.4 32.2976 2.54784 28.2527 6.52097 24.5307C10.4948 20.8081 16.2667 17.4372 23.4324 14.598C37.7614 8.92046 57.5841 5.4 79.5 5.4C101.416 5.4 121.239 8.92046 135.568 14.598C142.733 17.4372 148.505 20.8081 152.479 24.5307C156.452 28.2527 158.6 32.2976 158.6 36.5Z" fill="white" stroke="black" stroke-width="0.8"/>
<path d="M155.6 36.5C155.6 40.422 153.54 44.203 149.719 47.6871C145.897 51.1714 140.345 54.3276 133.45 56.9864C119.663 62.3031 100.589 65.6 79.5 65.6C58.4115 65.6 39.3375 62.3031 25.5502 56.9864C18.6553 54.3276 13.103 51.1714 9.28124 47.6871C5.4597 44.203 3.4 40.422 3.4 36.5C3.4 32.578 5.4597 28.797 9.28124 25.3129C13.103 21.8286 18.6553 18.6724 25.5502 16.0136C39.3375 10.6969 58.4115 7.4 79.5 7.4C100.589 7.4 119.663 10.6969 133.45 16.0136C140.345 18.6724 145.897 21.8286 149.719 25.3129C153.54 28.797 155.6 32.578 155.6 36.5Z" fill="white" stroke="black" stroke-width="0.8"/>
<path d="M35 47L19 21H26L38 41L40 38L29.5 21H35.5L51.5 47H35Z" fill="#063794"/>
<path d="M62.5 31.5L53.5 47H60L68.5 31.5H62.5Z" fill="#063794"/>
<path d="M104 31.5L95 47H101L109.5 31.5H104Z" fill="#063794"/>
<path d="M108 23.5L105.5 28H111L113.5 23.5H108Z" fill="#063794"/>
<path d="M112 31.5L103 47H108.5L116.5 33.5H118.5L111.5 47H116.5L123.314 34.734C123.731 33.9833 123.668 33.0577 123.153 32.3707C122.742 31.8226 122.097 31.5 121.412 31.5H112Z" fill="#063794"/>
<path fill-rule="evenodd" clip-rule="evenodd" d="M71 31.5L61.5 47H67.5L75.5 33.5H78.5L70 47H75.5L82.1179 35.529C82.6623 34.5853 82.6601 33.4335 82.0996 32.4993C81.7381 31.8969 81.0701 31.5 80.3676 31.5H71ZM87.5 31.5L78.5 47H84.5L92 33.5H94L86.5 47H92.5L98.5547 35.3232C99.1175 34.2376 98.9125 32.9125 98.0478 32.0478C97.6971 31.6971 97.2213 31.5 96.7253 31.5H87.5Z" fill="#063794"/>
<path fill-rule="evenodd" clip-rule="evenodd" d="M119.5 47C119.5 47 118.852 49.2965 119.5 50.5C119.893 51.2294 120 51.5 121 52C121.76 52.3802 125.991 52.1822 127.974 52.0655C128.619 52.0274 129.2 51.6721 129.537 51.1198L141.5 31.5H131.147C130.121 31.5 129.167 32.024 128.616 32.8894L123.406 41.0767C122.861 41.9331 122.903 43.0375 123.512 43.8496C123.819 44.259 124.301 44.5 124.813 44.5H128.5L125.5 49.5C125.5 49.5 124.264 50.8403 123 49.5C122.317 48.7756 124 47 124 47H119.5ZM132.5 33.5L127 42.5H129.5L135.5 33.5H132.5Z" fill="#063794"/>
<path d="M67 23.5L64.5 28H70L72.5 23.5H67Z" fill="#063794"/>
<path d="M64.5 21H40L52.5 41L64.5 21Z" fill="#E4020F"/>
<path d="M36.251 53V48.7051H39.1953V49.4316H37.1182V50.4482H38.9111V51.1748H37.1182V53H36.251ZM39.8867 53V48.7051H40.7539V53H39.8867ZM43.5811 51.4209V50.6973H45.4502V52.4082C45.2686 52.584 45.0049 52.7393 44.6592 52.874C44.3154 53.0068 43.9668 53.0732 43.6133 53.0732C43.1641 53.0732 42.7725 52.9795 42.4385 52.792C42.1045 52.6025 41.8535 52.333 41.6855 51.9834C41.5176 51.6318 41.4336 51.25 41.4336 50.8379C41.4336 50.3906 41.5273 49.9932 41.7148 49.6455C41.9023 49.2979 42.1768 49.0312 42.5381 48.8457C42.8135 48.7031 43.1562 48.6318 43.5664 48.6318C44.0996 48.6318 44.5156 48.7441 44.8145 48.9688C45.1152 49.1914 45.3086 49.5 45.3945 49.8945L44.5332 50.0557C44.4727 49.8447 44.3584 49.6787 44.1904 49.5576C44.0244 49.4346 43.8164 49.373 43.5664 49.373C43.1875 49.373 42.8857 49.4932 42.6611 49.7334C42.4385 49.9736 42.3271 50.3301 42.3271 50.8027C42.3271 51.3125 42.4404 51.6953 42.667 51.9512C42.8936 52.2051 43.1904 52.332 43.5576 52.332C43.7393 52.332 43.9209 52.2969 44.1025 52.2266C44.2861 52.1543 44.4434 52.0674 44.5742 51.9658V51.4209H43.5811ZM46.2559 53V48.7051H47.123V50.3955H48.8223V48.7051H49.6895V53H48.8223V51.1221H47.123V53H46.2559ZM51.5557 53V49.4316H50.2812V48.7051H53.6943V49.4316H52.4229V53H51.5557ZM54.2305 53V48.7051H55.0977V53H54.2305ZM55.9355 53V48.7051H56.7793L58.5371 51.5732V48.7051H59.3428V53H58.4727L56.7412 50.1992V53H55.9355ZM62.2607 51.4209V50.6973H64.1299V52.4082C63.9482 52.584 63.6846 52.7393 63.3389 52.874C62.9951 53.0068 62.6465 53.0732 62.293 53.0732C61.8438 53.0732 61.4521 52.9795 61.1182 52.792C60.7842 52.6025 60.5332 52.333 60.3652 51.9834C60.1973 51.6318 60.1133 51.25 60.1133 50.8379C60.1133 50.3906 60.207 49.9932 60.3945 49.6455C60.582 49.2979 60.8564 49.0312 61.2178 48.8457C61.4932 48.7031 61.8359 48.6318 62.2461 48.6318C62.7793 48.6318 63.1953 48.7441 63.4941 48.9688C63.7949 49.1914 63.9883 49.5 64.0742 49.8945L63.2129 50.0557C63.1523 49.8447 63.0381 49.6787 62.8701 49.5576C62.7041 49.4346 62.4961 49.373 62.2461 49.373C61.8672 49.373 61.5654 49.4932 61.3408 49.7334C61.1182 49.9736 61.0068 50.3301 61.0068 50.8027C61.0068 51.3125 61.1201 51.6953 61.3467 51.9512C61.5732 52.2051 61.8701 52.332 62.2373 52.332C62.4189 52.332 62.6006 52.2969 62.7822 52.2266C62.9658 52.1543 63.123 52.0674 63.2539 51.9658V51.4209H62.2607ZM66.3828 51.6025L67.2266 51.5205C67.2773 51.8037 67.3799 52.0117 67.5342 52.1445C67.6904 52.2773 67.9004 52.3438 68.1641 52.3438C68.4434 52.3438 68.6533 52.2852 68.7939 52.168C68.9365 52.0488 69.0078 51.9102 69.0078 51.752C69.0078 51.6504 68.9775 51.5645 68.917 51.4941C68.8584 51.4219 68.7549 51.3594 68.6064 51.3066C68.5049 51.2715 68.2734 51.209 67.9121 51.1191C67.4473 51.0039 67.1211 50.8623 66.9336 50.6943C66.6699 50.458 66.5381 50.1699 66.5381 49.8301C66.5381 49.6113 66.5996 49.4072 66.7227 49.2178C66.8477 49.0264 67.0264 48.8809 67.2588 48.7812C67.4932 48.6816 67.7754 48.6318 68.1055 48.6318C68.6445 48.6318 69.0498 48.75 69.3213 48.9863C69.5947 49.2227 69.7383 49.5381 69.752 49.9326L68.8848 49.9707C68.8477 49.75 68.7676 49.5918 68.6445 49.4961C68.5234 49.3984 68.3408 49.3496 68.0967 49.3496C67.8447 49.3496 67.6475 49.4014 67.5049 49.5049C67.4131 49.5713 67.3672 49.6602 67.3672 49.7715C67.3672 49.873 67.4102 49.96 67.4961 50.0322C67.6055 50.124 67.8711 50.2197 68.293 50.3193C68.7148 50.4189 69.0264 50.5225 69.2275 50.6299C69.4307 50.7354 69.5889 50.8809 69.7021 51.0664C69.8174 51.25 69.875 51.4775 69.875 51.749C69.875 51.9951 69.8066 52.2256 69.6699 52.4404C69.5332 52.6553 69.3398 52.8154 69.0898 52.9209C68.8398 53.0244 68.5283 53.0762 68.1553 53.0762C67.6123 53.0762 67.1953 52.9512 66.9043 52.7012C66.6133 52.4492 66.4395 52.083 66.3828 51.6025ZM70.6045 53V48.7051H71.9961C72.5234 48.7051 72.8672 48.7266 73.0273 48.7695C73.2734 48.834 73.4795 48.9746 73.6455 49.1914C73.8115 49.4062 73.8945 49.6846 73.8945 50.0264C73.8945 50.29 73.8467 50.5117 73.751 50.6914C73.6553 50.8711 73.5332 51.0127 73.3848 51.1162C73.2383 51.2178 73.0889 51.2852 72.9365 51.3184C72.7295 51.3594 72.4297 51.3799 72.0371 51.3799H71.4717V53H70.6045ZM71.4717 49.4316V50.6504H71.9463C72.2881 50.6504 72.5166 50.6279 72.6318 50.583C72.7471 50.5381 72.8369 50.4678 72.9014 50.3721C72.9678 50.2764 73.001 50.165 73.001 50.0381C73.001 49.8818 72.9551 49.7529 72.8633 49.6514C72.7715 49.5498 72.6553 49.4863 72.5146 49.4609C72.4111 49.4414 72.2031 49.4316 71.8906 49.4316H71.4717ZM74.4307 50.8789C74.4307 50.4414 74.4961 50.0742 74.627 49.7773C74.7246 49.5586 74.8574 49.3623 75.0254 49.1885C75.1953 49.0146 75.3809 48.8857 75.582 48.8018C75.8496 48.6885 76.1582 48.6318 76.5078 48.6318C77.1406 48.6318 77.6465 48.8281 78.0254 49.2207C78.4062 49.6133 78.5967 50.1592 78.5967 50.8584C78.5967 51.5518 78.4082 52.0947 78.0312 52.4873C77.6543 52.8779 77.1504 53.0732 76.5195 53.0732C75.8809 53.0732 75.373 52.8789 74.9961 52.4902C74.6191 52.0996 74.4307 51.5625 74.4307 50.8789ZM75.3242 50.8496C75.3242 51.3359 75.4365 51.7051 75.6611 51.957C75.8857 52.207 76.1709 52.332 76.5166 52.332C76.8623 52.332 77.1455 52.208 77.3662 51.96C77.5889 51.71 77.7002 51.3359 77.7002 50.8379C77.7002 50.3457 77.5918 49.9785 77.375 49.7363C77.1602 49.4941 76.874 49.373 76.5166 49.373C76.1592 49.373 75.8711 49.4961 75.6523 49.7422C75.4336 49.9863 75.3242 50.3555 75.3242 50.8496ZM79.2793 53V48.7051H81.1045C81.5635 48.7051 81.8965 48.7441 82.1035 48.8223C82.3125 48.8984 82.4795 49.0352 82.6045 49.2324C82.7295 49.4297 82.792 49.6553 82.792 49.9092C82.792 50.2314 82.6973 50.498 82.5078 50.709C82.3184 50.918 82.0352 51.0498 81.6582 51.1045C81.8457 51.2139 82 51.334 82.1211 51.4648C82.2441 51.5957 82.4092 51.8281 82.6162 52.1621L83.1406 53H82.1035L81.4766 52.0654C81.2539 51.7314 81.1016 51.5215 81.0195 51.4355C80.9375 51.3477 80.8506 51.2881 80.7588 51.2568C80.667 51.2236 80.5215 51.207 80.3223 51.207H80.1465V53H79.2793ZM80.1465 50.5215H80.7881C81.2041 50.5215 81.4639 50.5039 81.5674 50.4688C81.6709 50.4336 81.752 50.373 81.8105 50.2871C81.8691 50.2012 81.8984 50.0938 81.8984 49.9648C81.8984 49.8203 81.8594 49.7041 81.7812 49.6162C81.7051 49.5264 81.5967 49.4697 81.4561 49.4463C81.3857 49.4365 81.1748 49.4316 80.8232 49.4316H80.1465V50.5215ZM84.5791 53V49.4316H83.3047V48.7051H86.7178V49.4316H85.4463V53H84.5791ZM87.0605 51.6025L87.9043 51.5205C87.9551 51.8037 88.0576 52.0117 88.2119 52.1445C88.3682 52.2773 88.5781 52.3438 88.8418 52.3438C89.1211 52.3438 89.3311 52.2852 89.4717 52.168C89.6143 52.0488 89.6855 51.9102 89.6855 51.752C89.6855 51.6504 89.6553 51.5645 89.5947 51.4941C89.5361 51.4219 89.4326 51.3594 89.2842 51.3066C89.1826 51.2715 88.9512 51.209 88.5898 51.1191C88.125 51.0039 87.7988 50.8623 87.6113 50.6943C87.3477 50.458 87.2158 50.1699 87.2158 49.8301C87.2158 49.6113 87.2773 49.4072 87.4004 49.2178C87.5254 49.0264 87.7041 48.8809 87.9365 48.7812C88.1709 48.6816 88.4531 48.6318 88.7832 48.6318C89.3223 48.6318 89.7275 48.75 89.999 48.9863C90.2725 49.2227 90.416 49.5381 90.4297 49.9326L89.5625 49.9707C89.5254 49.75 89.4453 49.5918 89.3223 49.4961C89.2012 49.3984 89.0186 49.3496 88.7744 49.3496C88.5225 49.3496 88.3252 49.4014 88.1826 49.5049C88.0908 49.5713 88.0449 49.6602 88.0449 49.7715C88.0449 49.873 88.0879 49.96 88.1738 50.0322C88.2832 50.124 88.5488 50.2197 88.9707 50.3193C89.3926 50.4189 89.7041 50.5225 89.9053 50.6299C90.1084 50.7354 90.2666 50.8809 90.3799 51.0664C90.4951 51.25 90.5527 51.4775 90.5527 51.749C90.5527 51.9951 90.4844 52.2256 90.3477 52.4404C90.2109 52.6553 90.0176 52.8154 89.7676 52.9209C89.5176 53.0244 89.2061 53.0762 88.833 53.0762C88.29 53.0762 87.873 52.9512 87.582 52.7012C87.291 52.4492 87.1172 52.083 87.0605 51.6025ZM93.5615 53L92.5361 48.7051H93.4238L94.0713 51.6553L94.8564 48.7051H95.8877L96.6406 51.7051L97.2998 48.7051H98.1729L97.1299 53H96.21L95.3545 49.7891L94.502 53H93.5615ZM98.4424 50.8789C98.4424 50.4414 98.5078 50.0742 98.6387 49.7773C98.7363 49.5586 98.8691 49.3623 99.0371 49.1885C99.207 49.0146 99.3926 48.8857 99.5938 48.8018C99.8613 48.6885 100.17 48.6318 100.52 48.6318C101.152 48.6318 101.658 48.8281 102.037 49.2207C102.418 49.6133 102.608 50.1592 102.608 50.8584C102.608 51.5518 102.42 52.0947 102.043 52.4873C101.666 52.8779 101.162 53.0732 100.531 53.0732C99.8926 53.0732 99.3848 52.8789 99.0078 52.4902C98.6309 52.0996 98.4424 51.5625 98.4424 50.8789ZM99.3359 50.8496C99.3359 51.3359 99.4482 51.7051 99.6729 51.957C99.8975 52.207 100.183 52.332 100.528 52.332C100.874 52.332 101.157 52.208 101.378 51.96C101.601 51.71 101.712 51.3359 101.712 50.8379C101.712 50.3457 101.604 49.9785 101.387 49.7363C101.172 49.4941 100.886 49.373 100.528 49.373C100.171 49.373 99.8828 49.4961 99.6641 49.7422C99.4453 49.9863 99.3359 50.3555 99.3359 50.8496ZM103.291 53V48.7051H105.116C105.575 48.7051 105.908 48.7441 106.115 48.8223C106.324 48.8984 106.491 49.0352 106.616 49.2324C106.741 49.4297 106.804 49.6553 106.804 49.9092C106.804 50.2314 106.709 50.498 106.52 50.709C106.33 50.918 106.047 51.0498 105.67 51.1045C105.857 51.2139 106.012 51.334 106.133 51.4648C106.256 51.5957 106.421 51.8281 106.628 52.1621L107.152 53H106.115L105.488 52.0654C105.266 51.7314 105.113 51.5215 105.031 51.4355C104.949 51.3477 104.862 51.2881 104.771 51.2568C104.679 51.2236 104.533 51.207 104.334 51.207H104.158V53H103.291ZM104.158 50.5215H104.8C105.216 50.5215 105.476 50.5039 105.579 50.4688C105.683 50.4336 105.764 50.373 105.822 50.2871C105.881 50.2012 105.91 50.0938 105.91 49.9648C105.91 49.8203 105.871 49.7041 105.793 49.6162C105.717 49.5264 105.608 49.4697 105.468 49.4463C105.397 49.4365 105.187 49.4316 104.835 49.4316H104.158V50.5215ZM107.647 53V48.7402H108.515V52.2764H110.671V53H107.647ZM111.289 48.7051H112.874C113.231 48.7051 113.504 48.7324 113.691 48.7871C113.943 48.8613 114.159 48.9932 114.339 49.1826C114.519 49.3721 114.655 49.6045 114.749 49.8799C114.843 50.1533 114.89 50.4912 114.89 50.8936C114.89 51.2471 114.846 51.5518 114.758 51.8076C114.65 52.1201 114.497 52.373 114.298 52.5664C114.147 52.7129 113.944 52.8271 113.688 52.9092C113.497 52.9697 113.241 53 112.921 53H111.289V48.7051ZM112.156 49.4316V52.2764H112.804C113.046 52.2764 113.221 52.2627 113.328 52.2354C113.469 52.2002 113.585 52.1406 113.677 52.0566C113.771 51.9727 113.847 51.835 113.905 51.6436C113.964 51.4502 113.993 51.1875 113.993 50.8555C113.993 50.5234 113.964 50.2686 113.905 50.0908C113.847 49.9131 113.765 49.7744 113.659 49.6748C113.554 49.5752 113.42 49.5078 113.258 49.4727C113.137 49.4453 112.899 49.4316 112.546 49.4316H112.156Z" fill="#1F1F1F"/>
<path d="M135.348 51V48.1367H136.564C136.87 48.1367 137.092 48.1628 137.23 48.2148C137.37 48.2656 137.481 48.3568 137.564 48.4883C137.648 48.6198 137.689 48.7702 137.689 48.9395C137.689 49.1543 137.626 49.332 137.5 49.4727C137.374 49.612 137.185 49.6999 136.934 49.7363C137.059 49.8092 137.161 49.8893 137.242 49.9766C137.324 50.0638 137.434 50.2188 137.572 50.4414L137.922 51H137.23L136.812 50.377C136.664 50.1543 136.562 50.0143 136.508 49.957C136.453 49.8984 136.395 49.8587 136.334 49.8379C136.273 49.8158 136.176 49.8047 136.043 49.8047H135.926V51H135.348ZM135.926 49.3477H136.354C136.631 49.3477 136.804 49.3359 136.873 49.3125C136.942 49.2891 136.996 49.2487 137.035 49.1914C137.074 49.1341 137.094 49.0625 137.094 48.9766C137.094 48.8802 137.068 48.8027 137.016 48.7441C136.965 48.6842 136.893 48.6465 136.799 48.6309C136.752 48.6243 136.611 48.6211 136.377 48.6211H135.926V49.3477Z" fill="#1F1F1F"/>
<path d="M63.5293 15.6025L64.373 15.5205C64.4238 15.8037 64.5264 16.0117 64.6807 16.1445C64.8369 16.2773 65.0469 16.3438 65.3105 16.3438C65.5898 16.3438 65.7998 16.2852 65.9404 16.168C66.083 16.0488 66.1543 15.9102 66.1543 15.752C66.1543 15.6504 66.124 15.5645 66.0635 15.4941C66.0049 15.4219 65.9014 15.3594 65.7529 15.3066C65.6514 15.2715 65.4199 15.209 65.0586 15.1191C64.5938 15.0039 64.2676 14.8623 64.0801 14.6943C63.8164 14.458 63.6846 14.1699 63.6846 13.8301C63.6846 13.6113 63.7461 13.4072 63.8691 13.2178C63.9941 13.0264 64.1729 12.8809 64.4053 12.7812C64.6396 12.6816 64.9219 12.6318 65.252 12.6318C65.791 12.6318 66.1963 12.75 66.4678 12.9863C66.7412 13.2227 66.8848 13.5381 66.8984 13.9326L66.0312 13.9707C65.9941 13.75 65.9141 13.5918 65.791 13.4961C65.6699 13.3984 65.4873 13.3496 65.2432 13.3496C64.9912 13.3496 64.7939 13.4014 64.6514 13.5049C64.5596 13.5713 64.5137 13.6602 64.5137 13.7715C64.5137 13.873 64.5566 13.96 64.6426 14.0322C64.752 14.124 65.0176 14.2197 65.4395 14.3193C65.8613 14.4189 66.1729 14.5225 66.374 14.6299C66.5771 14.7354 66.7354 14.8809 66.8486 15.0664C66.9639 15.25 67.0215 15.4775 67.0215 15.749C67.0215 15.9951 66.9531 16.2256 66.8164 16.4404C66.6797 16.6553 66.4863 16.8154 66.2363 16.9209C65.9863 17.0244 65.6748 17.0762 65.3018 17.0762C64.7588 17.0762 64.3418 16.9512 64.0508 16.7012C63.7598 16.4492 63.5859 16.083 63.5293 15.6025ZM67.7246 17V12.7051H68.5918V17H67.7246ZM69.4297 17V12.7051H70.2734L72.0312 15.5732V12.7051H72.8369V17H71.9668L70.2354 14.1992V17H69.4297ZM76.5049 15.4209L77.3457 15.6875C77.2168 16.1562 77.002 16.5049 76.7012 16.7334C76.4023 16.96 76.0225 17.0732 75.5615 17.0732C74.9912 17.0732 74.5225 16.8789 74.1553 16.4902C73.7881 16.0996 73.6045 15.5664 73.6045 14.8906C73.6045 14.1758 73.7891 13.6211 74.1582 13.2266C74.5273 12.8301 75.0127 12.6318 75.6143 12.6318C76.1396 12.6318 76.5664 12.7871 76.8945 13.0977C77.0898 13.2812 77.2363 13.5449 77.334 13.8887L76.4756 14.0938C76.4248 13.8711 76.3184 13.6953 76.1562 13.5664C75.9961 13.4375 75.8008 13.373 75.5703 13.373C75.252 13.373 74.9932 13.4873 74.7939 13.7158C74.5967 13.9443 74.498 14.3145 74.498 14.8262C74.498 15.3691 74.5957 15.7559 74.791 15.9863C74.9863 16.2168 75.2402 16.332 75.5527 16.332C75.7832 16.332 75.9814 16.2588 76.1475 16.1123C76.3135 15.9658 76.4326 15.7354 76.5049 15.4209ZM78.0928 17V12.7051H81.2773V13.4316H78.96V14.3838H81.1162V15.1074H78.96V16.2764H81.3594V17H78.0928ZM85.6895 17H84.8662V13.8975C84.5654 14.1787 84.2109 14.3867 83.8027 14.5215V13.7744C84.0176 13.7041 84.251 13.5713 84.5029 13.376C84.7549 13.1787 84.9277 12.9492 85.0215 12.6875H85.6895V17ZM86.9404 16.0068L87.7373 15.9189C87.7568 16.0811 87.8076 16.2012 87.8896 16.2793C87.9717 16.3574 88.0801 16.3965 88.2148 16.3965C88.3848 16.3965 88.5293 16.3184 88.6484 16.1621C88.7676 16.0059 88.8438 15.6816 88.877 15.1895C88.6699 15.4297 88.4111 15.5498 88.1006 15.5498C87.7627 15.5498 87.4707 15.4199 87.2246 15.1602C86.9805 14.8984 86.8584 14.5586 86.8584 14.1406C86.8584 13.7051 86.9873 13.3545 87.2451 13.0889C87.5049 12.8213 87.835 12.6875 88.2354 12.6875C88.6709 12.6875 89.0283 12.8564 89.3076 13.1943C89.5869 13.5303 89.7266 14.084 89.7266 14.8555C89.7266 15.6406 89.5811 16.207 89.29 16.5547C88.999 16.9023 88.6201 17.0762 88.1533 17.0762C87.8174 17.0762 87.5459 16.9873 87.3389 16.8096C87.1318 16.6299 86.999 16.3623 86.9404 16.0068ZM88.8037 14.208C88.8037 13.9424 88.7422 13.7363 88.6191 13.5898C88.498 13.4434 88.3574 13.3701 88.1973 13.3701C88.0449 13.3701 87.918 13.4307 87.8164 13.5518C87.7168 13.6709 87.667 13.8672 87.667 14.1406C87.667 14.418 87.7217 14.6221 87.8311 14.7529C87.9404 14.8818 88.0771 14.9463 88.2412 14.9463C88.3994 14.9463 88.5322 14.8838 88.6396 14.7588C88.749 14.6338 88.8037 14.4502 88.8037 14.208ZM90.2334 15.8604L91.0303 15.7637C91.0557 15.9668 91.124 16.1221 91.2354 16.2295C91.3467 16.3369 91.4814 16.3906 91.6396 16.3906C91.8096 16.3906 91.9521 16.3262 92.0674 16.1973C92.1846 16.0684 92.2432 15.8945 92.2432 15.6758C92.2432 15.4688 92.1875 15.3047 92.0762 15.1836C91.9648 15.0625 91.8291 15.002 91.6689 15.002C91.5635 15.002 91.4375 15.0225 91.291 15.0635L91.3818 14.3926C91.6045 14.3984 91.7744 14.3506 91.8916 14.249C92.0088 14.1455 92.0674 14.0088 92.0674 13.8389C92.0674 13.6943 92.0244 13.5791 91.9385 13.4932C91.8525 13.4072 91.7383 13.3643 91.5957 13.3643C91.4551 13.3643 91.335 13.4131 91.2354 13.5107C91.1357 13.6084 91.0752 13.751 91.0537 13.9385L90.2949 13.8096C90.3477 13.5498 90.4268 13.3428 90.5322 13.1885C90.6396 13.0322 90.7881 12.9102 90.9775 12.8223C91.1689 12.7324 91.3828 12.6875 91.6191 12.6875C92.0234 12.6875 92.3477 12.8164 92.5918 13.0742C92.793 13.2852 92.8936 13.5234 92.8936 13.7891C92.8936 14.166 92.6875 14.4668 92.2754 14.6914C92.5215 14.7441 92.7178 14.8623 92.8643 15.0459C93.0127 15.2295 93.0869 15.4512 93.0869 15.7109C93.0869 16.0879 92.9492 16.4092 92.6738 16.6748C92.3984 16.9404 92.0557 17.0732 91.6455 17.0732C91.2568 17.0732 90.9346 16.9619 90.6787 16.7393C90.4229 16.5146 90.2744 16.2217 90.2334 15.8604ZM93.6025 13.5283V12.7637H96.418V13.3613C96.1855 13.5898 95.9492 13.918 95.709 14.3457C95.4688 14.7734 95.2852 15.2285 95.1582 15.7109C95.0332 16.1914 94.9717 16.6211 94.9736 17H94.1797C94.1934 16.4062 94.3154 15.8008 94.5459 15.1836C94.7783 14.5664 95.0879 14.0146 95.4746 13.5283H93.6025Z" fill="#1F1F1F"/>
<circle cx="136.5" cy="49.5" r="2.4" stroke="black" stroke-width="0.2"/>
</svg>
